<svg id="Ebene_1" data-name="Ebene 1" xmlns="http://www.w3.org/2000/svg" width="157" height="31.26" viewBox="0 0 157 31.26"><defs><style>.cls-1,.cls-2{fill:#646363;}.cls-2{fill-rule:evenodd;}.cls-3{fill:#e40520;}</style></defs><title>trivadis_logo_rgb</title><polygon class="cls-1" points="58.26 30.76 64.45 30.76 72.24 9.64 66.74 9.64 61.66 25.01 61.58 25.01 56.33 9.64 50.42 9.64 58.26 30.76 58.26 30.76"/><path class="cls-2" d="M78.12,15.46a11.09,11.09,0,0,1,6.53-2.3c3.24,0,4.76,1.15,4.76,4.56h-3a16.8,16.8,0,0,0-7.09,1.22,6.2,6.2,0,0,0-3.61,6c0,4,3.68,6.28,7.36,6.28a7.52,7.52,0,0,0,6.52-3.68h.08a25.87,25.87,0,0,0,.25,3.16h4.84c-.13-1.64-.21-3.12-.25-4.72s-.08-3.16-.08-5.29V18.05c0-6.24-2.67-8.9-9.1-8.9a18.66,18.66,0,0,0-7.36,1.6l.16,4.71Zm2.79,9.2C80.91,21.43,84.59,21,87,21h2.38a7,7,0,0,1-1.15,4.35,4.64,4.64,0,0,1-3.85,1.89c-2,0-3.49-.78-3.49-2.58Z"/><path class="cls-2" d="M106.47,20.14c0-2.83,1-6.75,4.55-6.75s4.91,3.77,4.91,6.75S114.75,27,111.1,27s-4.63-3.94-4.63-6.85Zm9.68,10.62h5.3V0h-5.52V12.1h-.08a7.48,7.48,0,0,0-6.31-2.95c-6.48,0-8.86,5.16-8.86,11s2.38,11.11,8.86,11.11A7.83,7.83,0,0,0,116,28.38h.08v2.38Z"/><path class="cls-1" d="M156,9.92a25.75,25.75,0,0,0-6-.77c-4.29,0-8.28,2-8.28,6.56,0,7.6,9.55,4.8,9.55,8.94,0,2.05-2.21,2.58-3.6,2.58a12.18,12.18,0,0,1-5.42-1.39l-.33,4.5a24.82,24.82,0,0,0,6.23.91c4.47,0,8.86-2,8.86-6.89,0-7.63-9.56-5.52-9.56-8.86,0-1.8,1.77-2.34,3.24-2.34a13.53,13.53,0,0,1,4.91.91L156,9.92Z"/><polygon class="cls-1" points="129.53 30.76 135.02 30.76 135.02 9.64 129.53 9.64 129.53 30.76 129.53 30.76"/><polygon class="cls-1" points="129.52 5.78 135 5.78 135 0.3 129.52 0.3 129.52 5.78 129.52 5.78"/><polygon class="cls-3" points="39.22 5.78 44.7 5.78 44.7 0.3 39.22 0.3 39.22 5.78 39.22 5.78"/><polygon class="cls-3" points="39.22 30.76 44.72 30.76 44.72 9.64 39.22 9.64 39.22 30.76 39.22 30.76"/><path class="cls-3" d="M21.7,30.76h5.37V23c-.18-10.23,5.26-8,5.26-8V9.2c0-.06-4.13.44-5.2,3.75V9.64H21.7Z"/><polygon class="cls-3" points="21.65 5.78 27.13 5.78 27.13 0.3 21.65 0.3 21.65 5.78 21.65 5.78"/><path class="cls-3" d="M4.06,24.4c0,4.18,2.38,6.85,6.69,6.85a14.29,14.29,0,0,0,4.06-.49l-.17-4.35a5,5,0,0,1-2.5.58c-2.09,0-2.58-1.68-2.58-3.48V13.69h4.9v-4H0v4H4.06Z"/><polygon class="cls-3" points="4.03 5.78 9.51 5.78 9.51 0.3 4.03 0.3 4.03 5.78 4.03 5.78"/></svg>