<svg xmlns="http://www.w3.org/2000/svg" xmlns:xlink="http://www.w3.org/1999/xlink" width="189" height="55" viewBox="0 0 189 55">
    <defs>
        <path id="a" d="M0 55h189V0H0z"/>
    </defs>
    <g fill="none" fill-rule="evenodd">
        <path fill="#646363" d="M5.04 54.842h1.674v-3.233c0-.86.139-2.245 1.253-2.245.96 0 .96.875.96 1.497v3.981h1.675v-3.233c0-.86.139-2.245 1.252-2.245.962 0 .962.875.962 1.497v3.981h1.674v-4.199c0-1.496-.451-2.589-2.039-2.589a2.174 2.174 0 0 0-2.009 1.168 1.873 1.873 0 0 0-1.9-1.168 2.249 2.249 0 0 0-1.937 1.078v-.928H5.04v6.638zM17.588 52.831c0-1.004 1.125-1.13 1.882-1.13h.735c.034.475-.09.948-.352 1.344-.281.372-.72.588-1.184.584-.603 0-1.074-.244-1.074-.798h-.007zm-.86-2.836a3.397 3.397 0 0 1 2.007-.738c.992 0 1.47.354 1.47 1.403h-.978a5.128 5.128 0 0 0-2.206.377 1.921 1.921 0 0 0-1.11 1.86 2.076 2.076 0 0 0 2.272 1.935 2.323 2.323 0 0 0 2.008-1.13c.004.327.028.652.073.975h1.471c-.037-.51-.066-.96-.074-1.477-.007-.517 0-.975 0-1.632v-.775c0-1.927-.816-2.747-2.801-2.747a5.79 5.79 0 0 0-2.258.495l.052 1.477.073-.023zM23.468 54.684h1.722v-3.161h.023l2.217 3.16h2.18l-2.772-3.602 2.465-2.91h-2.03l-2.06 2.608h-.023V45.2h-1.723zM35.557 52.945c-.654.4-1.401.626-2.169.654a1.706 1.706 0 0 1-1.864-1.638h4.544c0-2.27-.689-3.915-3.109-3.915-2.035 0-3.034 1.55-3.034 3.43 0 2.13 1.258 3.364 3.412 3.364a4.518 4.518 0 0 0 2.22-.514v-1.38zm-4.04-2.145a1.473 1.473 0 0 1 1.419-1.526l.06-.001c.955 0 1.332.734 1.384 1.527h-2.864zM41.413 48.288a7.832 7.832 0 0 0-1.843-.242c-1.326 0-2.557.617-2.557 2.013 0 2.344 2.948 1.47 2.948 2.748 0 .632-.686.793-1.113.793a3.689 3.689 0 0 1-1.666-.426l-.103 1.389a7.604 7.604 0 0 0 1.924.279c1.378 0 2.734-.603 2.734-2.116 0-2.344-2.948-1.69-2.948-2.726 0-.55.545-.734.995-.734a4.159 4.159 0 0 1 1.504.308l.11-1.27.015-.016z"/>
        <mask id="b" fill="#fff">
            <use xlink:href="#a"/>
        </mask>
        <path fill="#E4051F" d="M46.778 55h1.732v-9.009h-1.732zM51.806 55h1.755v-7.587h2.509V45.99h-6.773v1.422h2.51z" mask="url(#b)"/>
        <path fill="#646363" d="M65.812 52.945c-.654.4-1.401.626-2.169.654a1.706 1.706 0 0 1-1.865-1.638h4.53c0-2.27-.689-3.915-3.109-3.915-2.028 0-3.034 1.55-3.034 3.43 0 2.13 1.258 3.364 3.412 3.364a4.518 4.518 0 0 0 2.22-.514v-1.38h.015zM61.77 50.8a1.473 1.473 0 0 1 1.42-1.526l.06-.001c.955 0 1.332.734 1.384 1.527h-2.864zM68.896 52.831c0-1.004 1.125-1.13 1.882-1.13h.736c.033.475-.091.948-.353 1.344-.281.372-.72.588-1.184.584-.603 0-1.074-.244-1.074-.798h-.007zm-.86-2.836a3.392 3.392 0 0 1 2.007-.738c1 0 1.47.354 1.47 1.403h-.94a5.128 5.128 0 0 0-2.207.377 1.921 1.921 0 0 0-1.11 1.86 2.076 2.076 0 0 0 2.272 1.935c.814.016 1.576-.4 2.008-1.093.004.327.028.652.073.975h1.471c-.037-.51-.066-.96-.074-1.477-.007-.517 0-.975 0-1.632v-.812c0-1.927-.823-2.747-2.801-2.747a5.79 5.79 0 0 0-2.258.495L68 50.018l.037-.023zM78.898 48.288a7.832 7.832 0 0 0-1.843-.242c-1.326 0-2.558.617-2.558 2.013 0 2.344 2.949 1.47 2.949 2.748 0 .632-.686.793-1.113.793a3.689 3.689 0 0 1-1.666-.426l-.103 1.389a7.604 7.604 0 0 0 1.924.279c1.378 0 2.734-.603 2.734-2.116 0-2.344-2.948-1.69-2.948-2.726 0-.55.545-.734 1.002-.734a4.175 4.175 0 0 1 1.519.279l.11-1.271-.007.014zM80.325 47.139h1.733v-1.622h-1.733v1.622zm0 7.703h1.733v-6.538h-1.733v6.538zM89.13 52.945c-.654.4-1.402.626-2.17.654a1.706 1.706 0 0 1-1.864-1.638h4.522c0-2.27-.689-3.915-3.109-3.915-2.028 0-3.034 1.55-3.034 3.43 0 2.13 1.258 3.364 3.412 3.364a4.518 4.518 0 0 0 2.22-.514v-1.38h.022zM85.087 50.8a1.473 1.473 0 0 1 1.42-1.526l.06-.001c.955 0 1.333.734 1.384 1.527h-2.864zM91.035 54.842h1.752v-2.457c0-.951 0-2.697 1.424-2.697.261-.008.522.04.761.142V48.1a1.936 1.936 0 0 0-.533-.052 2.051 2.051 0 0 0-1.843 1.655v-1.498h-1.523v6.637h-.038zM94.657 54.842h1.733v-1.739h-1.733z" mask="url(#b)"/>
        <path fill="#E4051F" d="M177.03 55h6.773v-6.796h-6.773zM134.977 55h6.773v-6.796h-6.773zM155.925 55h6.772v-6.796h-6.772z" mask="url(#b)"/>
        <path fill="#646363" d="M70.238 37.14h7.468l9.391-25.603h-6.625l-6.13 18.638h-.096l-6.33-18.638h-7.121zM97.36 29.66c0-3.914 4.443-4.447 7.405-4.447h2.874c0 1.979-.296 3.817-1.385 5.256a5.634 5.634 0 0 1-4.658 2.283c-2.378 0-4.207-.942-4.207-3.121l-.03.03zm-3.37-11.12a13.32 13.32 0 0 1 7.887-2.78c3.91 0 5.747 1.387 5.747 5.501h-3.666c-2.77 0-6.043.245-8.568 1.483-2.526 1.238-4.355 3.47-4.355 7.287 0 4.856 4.443 7.584 8.887 7.584 3.022 0 6.34-1.586 7.872-4.448h.097c.02 1.277.119 2.552.296 3.818h5.843c-.148-1.98-.244-3.766-.296-5.7a220.372 220.372 0 0 1-.097-6.391v-3.232c0-7.532-3.221-10.757-10.99-10.757-3.062.042-6.084.7-8.887 1.935l.2 5.7h.03zM139.805 37.335h6.355V0h-6.612v14.681h-.096a8.947 8.947 0 0 0-7.568-3.58c-7.758 0-10.609 6.268-10.609 13.34 0 7.073 2.85 13.49 10.61 13.49 3.093 0 5.796-.998 7.758-3.484h.096v2.888h.066zM128.21 24.441c0-3.432 1.183-8.19 5.451-8.19 4.27 0 5.878 4.58 5.878 8.19 0 3.61-1.41 8.316-5.782 8.316s-5.547-4.78-5.547-8.316zM187.773 11.847a30.41 30.41 0 0 0-7.214-.942c-5.174 0-9.986 2.432-9.986 7.932-.015 9.185 11.516 5.797 11.516 10.801 0 2.476-2.669 3.121-4.347 3.121a14.518 14.518 0 0 1-6.526-1.683l-.4 5.45a29.58 29.58 0 0 0 7.51 1.089c5.389 0 10.674-2.38 10.674-8.325 0-9.222-11.516-6.672-11.516-10.705 0-2.18 2.129-2.824 3.903-2.824a16.211 16.211 0 0 1 5.913 1.09l.443-5.004h.03zM155.925 37.14h6.772V11.538h-6.772zM155.925 7.112h6.772V.316h-6.772z" mask="url(#b)"/>
        <path fill="#E4051F" d="M47.25 7.112h6.773V.316H47.25zM47.25 37.14h6.773V11.538H47.25zM25.988 37.299h6.524v-9.376c-.216-12.372 6.39-9.694 6.39-9.694v-7.002c0-.074-5.02.534-6.315 4.532v-4.005h-6.6v25.545zM25.988 7.112h6.772V.316h-6.772zM4.924 29.346c0 5.046 2.886 8.265 8.107 8.265 1.661.035 3.319-.164 4.924-.592l-.2-5.246a5.979 5.979 0 0 1-3.035.696c-2.537 0-3.132-2.028-3.132-4.203V16.428h5.95v-4.89H0v4.846h4.924v12.962zM4.725 7.112h6.773V.316H4.725z" mask="url(#b)"/>
    </g>
</svg>
