<?xml version="1.0" standalone="yes"?><svg xmlns="http://www.w3.org/2000/svg" id="LOGO" viewBox="0 0 571 198" style="zoom: 1;" width="571pt" height="198pt"><defs><style>.cls-1,.cls-2{fill:#1e2946;}.cls-2,.cls-4,.cls-6{fill-rule:evenodd;}.cls-3,.cls-4{fill:#010101;}.cls-5,.cls-6{fill:#fff;}</style></defs><polygon class="cls-1" points="200.55 105.89 221.87 105.89 248.7 33.18 229.78 33.18 212.27 86.13 211.99 86.13 193.92 33.18 173.59 33.18 200.55 105.89 200.55 105.89"></polygon><path d="M395.3,133.88 a38.06,38.06 0 0 1 22.45,-7.9 c11.16,0 16.38,4 16.38,15.67 H423.68 c-7.9,0 -17.22,.7 -24.42,4.23 s-12.43,9.89 -12.43,20.76 c0,13.84 12.57,21.6 25.41,21.6 c8.62,0 18.08,-4.52 22.45,-12.56 H435 a89.56,89.56 0 0 0 .84,10.87 h16.67 c-.43,-5.65 -.71,-10.73 -.85,-16.24 s-.28,-10.87 -.28,-18.21 v-9.32 c0,-21.46 -9.18,-30.64 -31.35,-30.64 a65,65 0 0 0 -25.27,5.51 l.56,16.23 m9.6,31.63 c0,-11.15 12.57,-12.57 21,-12.57 h8.19 c0,5.65 -.85,10.87 -3.95,15 a16.08,16.08 0 0 1 -13.27,6.5 c-6.78,0 -12,-2.69 -12,-8.9 " transform="translate(-126.38 -80.65)" class="cls-2"></path><path class="cls-2" d="M492.9,150c0-9.74,3.39-23.16,15.67-23.16s16.94,13,16.94,23.16-4.09,23.58-16.66,23.58-16-13.56-16-23.58Zm33.32,36.57h18.35V80.65H525.65V122.3h-.28c-5.65-6.91-12.28-10.16-21.74-10.16-22.31,0-30.5,17.79-30.5,37.84s8.19,38.26,30.5,38.26c8.89,0,16.66-2.82,22.31-9.88h.28v8.19Z" transform="translate(-126.38 -80.65)"></path><path d="M663.369995,115.565712 c-5.93,-1.27 -11.72,-2.68 -20.62,-2.68 c-14.82,0 -28.52,6.92 -28.52,22.59 c0,26.26 32.9,16.52 32.9,30.78 c0,7.06 -7.62,8.9 -12.42,8.9 a41.49,41.49 0 0 1 -18.64,-4.81 l-1.13,15.53 a84.56,84.56 0 0 0 21.46,3.11 c15.39,0 30.5,-6.78 30.5,-23.72 c0,-26.26 -32.9,-18.92 -32.9,-30.5 c0,-6.21 6.07,-8 11.15,-8 c6.92,0 11.16,1.12 17,3.1 l1.27,-14.26 " transform="translate(-126.38 -80.65)" class="cls-1"></path><polygon class="cls-1" points="445.9 105.89 464.82 105.89 464.82 33.18 445.9 33.18 445.9 105.89 445.9 105.89"></polygon><polygon class="cls-1" points="445.89 19.91 464.76 19.91 464.76 1.04 445.89 1.04 445.89 19.91 445.89 19.91"></polygon><polygon class="cls-1" points="135.03 19.91 153.89 19.91 153.89 1.04 135.03 1.04 135.03 19.91 135.03 19.91"></polygon><polygon class="cls-1" points="135.03 105.89 153.94 105.89 153.94 33.18 135.03 33.18 135.03 105.89 135.03 105.89"></polygon><path class="cls-1" d="M201.06,186.55h18.49V159.86c-.61-35.22,18.13-27.6,18.13-27.6v-20c0-.21-14.24,1.52-17.92,12.89V113.83H201.06v72.72Z" transform="translate(-126.38 -80.65)"></path><polygon class="cls-1" points="74.53 19.91 93.4 19.91 93.4 1.04 74.53 1.04 74.53 19.91 74.53 19.91"></polygon><path class="cls-1" d="M140.36,164.66c0,14.4,8.19,23.58,23,23.58a49.77,49.77,0,0,0,14-1.69l-.57-15c-2,1.27-5.22,2-8.61,2-7.2,0-8.89-5.79-8.89-12V127.67h16.8V113.83h-49.7v13.84h14v37Z" transform="translate(-126.38 -80.65)"></path><polygon class="cls-1" points="13.88 19.91 32.75 19.91 32.75 1.04 13.88 1.04 13.88 19.91 13.88 19.91"></polygon><path class="cls-3" d="M128.39,224.24h9.88a18.72,18.72,0,0,1,4.69.57,10.62,10.62,0,0,1,3.87,1.8,8.94,8.94,0,0,1,2.63,3.17,10.25,10.25,0,0,1,1,4.66v.2a10.5,10.5,0,0,1-1,4.73,8.83,8.83,0,0,1-2.63,3.19,10.63,10.63,0,0,1-3.87,1.81,19.19,19.19,0,0,1-4.69.56h-5.65v14.12h-4.23Zm10.17,17.28a8.18,8.18,0,0,0,5.69-1.77,6.61,6.61,0,0,0,1.95-5.14v-.19c0-2.47-.68-4.21-2-5.24a9.17,9.17,0,0,0-5.6-1.53h-5.94v13.87Z" transform="translate(-126.38 -80.65)"></path><path class="cls-3" d="M161.87,259.48a12.25,12.25,0,0,1-3.31-.43,7.49,7.49,0,0,1-2.7-1.37,6.43,6.43,0,0,1-1.8-2.33,7.87,7.87,0,0,1-.66-3.36,6.24,6.24,0,0,1,1.07-3.7,8,8,0,0,1,2.85-2.44,14.24,14.24,0,0,1,4.09-1.33,26.45,26.45,0,0,1,4.74-.42h3.66v-1.83c0-2-.43-3.49-1.27-4.38s-2.24-1.33-4.19-1.33q-5.25,0-5.84,4.53h-4a8.58,8.58,0,0,1,1.1-3.7,7.62,7.62,0,0,1,2.29-2.46,9.4,9.4,0,0,1,3.11-1.37,15.66,15.66,0,0,1,3.58-.41,15,15,0,0,1,3.5.41,7.28,7.28,0,0,1,3,1.47,7.43,7.43,0,0,1,2,2.79,11,11,0,0,1,.77,4.43v16.8h-4v-3.22a9.7,9.7,0,0,1-3.27,2.73A10.5,10.5,0,0,1,161.87,259.48Zm.39-3.21a10.59,10.59,0,0,0,3-.41,7.25,7.25,0,0,0,2.39-1.2,5.59,5.59,0,0,0,2.17-4.52V247H166.3a21.72,21.72,0,0,0-3.53.27,10.07,10.07,0,0,0-2.82.85,4.65,4.65,0,0,0-1.85,1.54,4,4,0,0,0-.66,2.36,4.43,4.43,0,0,0,1.07,3.14Q159.59,256.27,162.26,256.27Z" transform="translate(-126.38 -80.65)"></path><path class="cls-3" d="M181.15,233.59h4v4.57a11.73,11.73,0,0,1,1.33-2,8.08,8.08,0,0,1,4-2.6,11.73,11.73,0,0,1,3-.44V237a18.51,18.51,0,0,0-3.46.48,6.43,6.43,0,0,0-2.65,1.32,5.87,5.87,0,0,0-1.68,2.46,11,11,0,0,0-.58,3.87v14h-4Z" transform="translate(-126.38 -80.65)"></path><path class="cls-3" d="M206.8,259.39q-3.51,0-5.19-1.85a7,7,0,0,1-1.68-4.87V237h-3.65v-3.41h3.65V227.8h4v5.79h5.94V237H204v15.28q0,3.71,3.17,3.7a8.6,8.6,0,0,0,1.7-.15,8.14,8.14,0,0,0,1.41-.39v3.41a8.45,8.45,0,0,1-1.41.39A11.2,11.2,0,0,1,206.8,259.39Z" transform="translate(-126.38 -80.65)"></path><path class="cls-3" d="M237.94,259.48a12.68,12.68,0,0,1-5-1,11.82,11.82,0,0,1-3.94-2.7,12.06,12.06,0,0,1-2.58-4.11,14.08,14.08,0,0,1-.93-5.16v-.39a14.15,14.15,0,0,1,1-5.26,12.6,12.6,0,0,1,2.61-4.11A11.39,11.39,0,0,1,233,234.1a13.63,13.63,0,0,1,10,0,11.63,11.63,0,0,1,4,2.65,12.39,12.39,0,0,1,2.6,4.09,14.15,14.15,0,0,1,.95,5.26v.39a14.37,14.37,0,0,1-.95,5.28,12,12,0,0,1-2.63,4.11,11.83,11.83,0,0,1-4,2.65A12.86,12.86,0,0,1,237.94,259.48Zm.05-3.4a8.61,8.61,0,0,0,3.46-.68,7.16,7.16,0,0,0,2.63-1.94,9,9,0,0,0,1.65-3,12.26,12.26,0,0,0,.59-3.89v-.34a12.68,12.68,0,0,0-.59-4,8.7,8.7,0,0,0-1.68-3.06,7.3,7.3,0,0,0-2.63-1.93,8.4,8.4,0,0,0-3.43-.68,8.56,8.56,0,0,0-3.45.68,7.06,7.06,0,0,0-2.63,1.93,8.86,8.86,0,0,0-1.66,3,12.51,12.51,0,0,0-.58,4v.39a10.34,10.34,0,0,0,2.22,7A7.61,7.61,0,0,0,238,256.08Z" transform="translate(-126.38 -80.65)"></path><path class="cls-3" d="M257,237h-3.65v-3.41H257v-4.14a8.81,8.81,0,0,1,1.9-6,7.23,7.23,0,0,1,5.7-2.14,8.77,8.77,0,0,1,1.6.12,11,11,0,0,1,1.41.37v3.45a5.82,5.82,0,0,0-1.29-.39,8.07,8.07,0,0,0-1.58-.15,3.23,3.23,0,0,0-2.84,1.21,5.36,5.36,0,0,0-.86,3.15v4.55h6.23V237h-6.23v22.05h-4Z" transform="translate(-126.38 -80.65)"></path><path class="cls-3" d="M292.41,224.24h10.27L314,259.05h-8.23l-2.38-7.74H290.75l-2.38,7.74H281Zm0,21.47h9.19l-4.57-15Z" transform="translate(-126.38 -80.65)"></path><path class="cls-3" d="M327.06,259.58a15.34,15.34,0,0,1-5.18-.85,11.37,11.37,0,0,1-6.91-6.57,14.28,14.28,0,0,1-1-5.53v-.39a14.29,14.29,0,0,1,1-5.52,12.47,12.47,0,0,1,2.82-4.21,12.32,12.32,0,0,1,4.19-2.6,14.34,14.34,0,0,1,5.11-.9,17.74,17.74,0,0,1,4.26.51,10.85,10.85,0,0,1,3.72,1.68,9.4,9.4,0,0,1,2.68,3.06,11.46,11.46,0,0,1,1.31,4.63h-6.66a5.16,5.16,0,0,0-1.63-3.27,5.41,5.41,0,0,0-3.53-1.07,5.5,5.5,0,0,0-4.43,2,8.43,8.43,0,0,0-1.66,5.6v.39a8.85,8.85,0,0,0,1.63,5.78,5.69,5.69,0,0,0,4.6,1.94,5.82,5.82,0,0,0,3.68-1.21,5,5,0,0,0,1.77-3.66h6.38a11.62,11.62,0,0,1-1,4.16,9.34,9.34,0,0,1-2.44,3.19,11.1,11.1,0,0,1-3.74,2.12A15.31,15.31,0,0,1,327.06,259.58Z" transform="translate(-126.38 -80.65)"></path><path class="cls-3" d="M353.34,259.58a15.42,15.42,0,0,1-5.18-.85,11.37,11.37,0,0,1-6.91-6.57,14.28,14.28,0,0,1-1-5.53v-.39a14.29,14.29,0,0,1,1-5.52,12.64,12.64,0,0,1,2.83-4.21,12.28,12.28,0,0,1,4.18-2.6,14.38,14.38,0,0,1,5.11-.9,17.74,17.74,0,0,1,4.26.51,11,11,0,0,1,3.73,1.68,9.37,9.37,0,0,1,2.67,3.06,11.46,11.46,0,0,1,1.32,4.63H358.7a5.12,5.12,0,0,0-1.63-3.27,5.39,5.39,0,0,0-3.53-1.07,5.5,5.5,0,0,0-4.43,2,8.48,8.48,0,0,0-1.65,5.6v.39c0,2.56.54,4.48,1.63,5.78a5.68,5.68,0,0,0,4.6,1.94,5.79,5.79,0,0,0,3.67-1.21,5.07,5.07,0,0,0,1.78-3.66h6.37a11.62,11.62,0,0,1-1,4.16,9.32,9.32,0,0,1-2.43,3.19,11.24,11.24,0,0,1-3.75,2.12A15.31,15.31,0,0,1,353.34,259.58Z" transform="translate(-126.38 -80.65)"></path><path class="cls-3" d="M379.82,259.58a15.39,15.39,0,0,1-5.3-.88,12,12,0,0,1-7-6.61,14.14,14.14,0,0,1-1-5.46v-.39a14.38,14.38,0,0,1,1-5.45,12.34,12.34,0,0,1,2.8-4.18,12.58,12.58,0,0,1,4.14-2.66,13.88,13.88,0,0,1,5.16-.94,14.77,14.77,0,0,1,4.72.75,10.94,10.94,0,0,1,3.94,2.31,11.09,11.09,0,0,1,2.73,4,15.25,15.25,0,0,1,1,5.86v2H373.69a7.44,7.44,0,0,0,1.78,4.94,7.14,7.14,0,0,0,8.27.75,4.28,4.28,0,0,0,1.58-2.58H392a9.11,9.11,0,0,1-3.77,6.36A14.36,14.36,0,0,1,379.82,259.58Zm5.36-16a6.44,6.44,0,0,0-1.61-4.31,6.08,6.08,0,0,0-7.86.1,7.05,7.05,0,0,0-1.92,4.21Z" transform="translate(-126.38 -80.65)"></path><path d="M394.81,233.59 h7.06 v4 a8.73,8.73 0 0 1 3,-3.26 a9.27,9.27 0 0 1 5.26,-1.36 a9.76,9.76 0 0 1 3.45,.58 a7.57,7.57 0 0 1 2.73,1.75 a8.56,8.56 0 0 1 1.75,3.09 a13.87,13.87 0 0 1 .63,4.41 v16.21 h-7.06 V243.86 a5.81,5.81 0 0 0 -1.07,-3.87 a4.25,4.25 0 0 0 -3.4,-1.24 a5,5 0 0 0 -5.31,5.6 v14.7 h-7.06" transform="translate(-126.38 -80.65)" class="cls-3"></path><path d="M432.19,259.53 q-4,0 -6.13,-2 c-1.4,-1.34 -2.09,-3.35 -2.09,-6 V238.6 h-3.26 v-5 H424 v-5.5 h7 v5.5 h5.35 v5 H431 v12.27 a3.2,3.2 0 0 0 .7,2.26 a2.78,2.78 0 0 0 2.12,.76 a7.2,7.2 0 0 0 1.44,-.13 a6.33,6.33 0 0 0 1.24,-.36 v5.45 a15.19,15.19 0 0 1 -1.81,.46 A12.15,12.15 0 0 1 432.19,259.53" transform="translate(-126.38 -80.65)" class="cls-3"></path><path d="M447.87,259.58 a10.34,10.34 0 0 1 -3.44,-.56 a7.26,7.26 0 0 1 -2.75,-1.73 a8.08,8.08 0 0 1 -1.82,-3 a12.68,12.68 0 0 1 -.66,-4.31 v-16.4 h7 V249 a5.66,5.66 0 0 0 1.12,3.82 a4.14,4.14 0 0 0 3.31,1.29 a5,5 0 0 0 5.3,-5.6 V233.59 h7 v25.46 h-7 v-4 a8.2,8.2 0 0 1 -2.94,3.24 A9.22,9.22 0 0 1 447.87,259.58" transform="translate(-126.38 -80.65)" class="cls-3"></path><path d="M467.33,233.59 h7.06 v4.87 a9.46,9.46 0 0 1 3.16,-3.9 a9.2,9.2 0 0 1 5.07,-1.36 v6.57 a10.57,10.57 0 0 0 -6.09,1.41 q-2.14,1.47 -2.14,5.11 v12.76 h-7.06" transform="translate(-126.38 -80.65)" class="cls-3"></path><path d="M496.63,259.58 a15.39,15.39 0 0 1 -5.3,-.88 a12,12 0 0 1 -7,-6.61 a14.14,14.14 0 0 1 -1,-5.46 v-.39 a14.38,14.38 0 0 1 1,-5.45 a12.34,12.34 0 0 1 2.8,-4.18 a12.58,12.58 0 0 1 4.14,-2.66 a13.88,13.88 0 0 1 5.16,-.94 a14.77,14.77 0 0 1 4.72,.75 a10.85,10.85 0 0 1 3.94,2.31 a11.09,11.09 0 0 1 2.73,4 a15.25,15.25 0 0 1 1,5.86 v2 H490.5 a7.44,7.44 0 0 0 1.78,4.94 a7.14,7.14 0 0 0 8.27,.75 a4.24,4.24 0 0 0 1.58,-2.58 h6.67 a9.11,9.11 0 0 1 -3.77,6.36 A14.34,14.34 0 0 1 496.63,259.58 m5.36,-16 a6.44,6.44 0 0 0 -1.61,-4.31 a6.08,6.08 0 0 0 -7.86,.1 a7.05,7.05 0 0 0 -1.92,4.21" transform="translate(-126.38 -80.65)" class="cls-3"></path></svg>